<svg version="1.2" baseProfile="tiny-ps" xmlns="http://www.w3.org/2000/svg" viewBox="0 0 760 240" width="760" height="240">
	<title>logo-svg</title>
	<style>
		tspan { white-space:pre }
		.shp0 { fill: #cc3333 } 
	</style>
	<g id="Layer">
		<g id="Layer">
			<g id="Layer">
				<path id="Layer" class="shp0" d="M104.74 145.66L104.74 185.8L73.21 185.8C43.78 185.8 25.9 167.81 25.9 138.24L25.9 88.03L1.54 88.03L1.54 77.32L61.16 13.83L70.58 13.83L70.58 52.73L104 52.73L104 88.03L71.73 88.03L71.73 130.38C71.73 139.91 77.48 145.66 87.15 145.66L104.74 145.66L104.74 145.66Z" />
				<path id="Layer" fill-rule="evenodd" class="shp0" d="M117.15 119.27C117.15 78.02 148.37 48.38 191.76 48.38C235 48.38 266.37 78.02 266.37 119.27C266.37 160.38 235.01 190.16 191.76 190.16C148.37 190.16 117.15 160.38 117.15 119.27ZM220.46 119.27C220.46 101.78 208.47 89.55 191.76 89.55C175.05 89.55 163.06 101.68 163.06 119.27C163.06 136.86 175.05 148.99 191.76 148.99C208.47 148.99 220.46 136.86 220.46 119.27Z" />
				<path id="Layer" fill-rule="evenodd" class="shp0" d="M428.08 4.68L428.08 185.8L394.16 185.8L389.84 175.92C379.01 185.03 365.2 190.3 349.7 190.3C308.87 190.3 279.78 160.62 279.78 119.27C279.78 77.92 308.86 48.38 349.7 48.38C361.99 48.38 373.23 51.69 382.76 57.62L382.76 4.68L428.08 4.68ZM385.62 119.27C385.62 101.89 373 88.82 355.83 88.82C338.66 88.82 326.04 101.89 326.04 119.27C326.04 136.64 338.66 149.72 355.83 149.72C373 149.72 385.62 136.65 385.62 119.27Z" />
				<path id="Layer" fill-rule="evenodd" class="shp0" d="M590.46 52.6L590.46 185.67L555.03 185.67L551.11 176.26C540.21 185.09 526.41 190.17 510.96 190.17C470.27 190.17 441.19 160.49 441.19 119.13C441.19 77.92 470.27 48.59 510.96 48.59C526.63 48.59 540.63 53.82 551.62 62.89L556.31 52.6L590.46 52.6ZM546.86 119.23C546.86 101.96 534.24 88.99 517.07 88.99C499.8 88.99 487.28 101.96 487.28 119.23C487.28 136.61 499.9 149.58 517.07 149.58C534.24 149.58 546.86 136.61 546.86 119.23Z" />
				<path id="Layer" class="shp0" d="M758.46 52.74L702.69 179.88C684.75 220.6 668.27 235.32 633.91 235.32L618.22 235.32L618.22 195.94L630.82 195.94C648.36 195.94 653.64 191.37 659.85 174.81L604.86 52.74L654.67 52.74L682.91 126.04L709.23 52.74L758.46 52.74Z" />
			</g>
		</g>
	</g>
</svg>